<svg width="21" height="21" viewBox="0 0 21 21" xmlns="http://www.w3.org/2000/svg"><path d="M10 9h1a1 1 0 0 1 1 1v1a1 1 0 0 1-1 1h-1a1 1 0 0 1-1-1v-1a1 1 0 0 1 1-1zm0-4h1a1 1 0 0 1 1 1v1a1 1 0 0 1-1 1h-1a1 1 0 0 1-1-1V6a1 1 0 0 1 1-1zm4 4h1a1 1 0 0 1 1 1v1a1 1 0 0 1-1 1h-1a1 1 0 0 1-1-1v-1a1 1 0 0 1 1-1zm0-4h1a1 1 0 0 1 1 1v1a1 1 0 0 1-1 1h-1a1 1 0 0 1-1-1V6a1 1 0 0 1 1-1zm0 8h1a1 1 0 0 1 1 1v1a1 1 0 0 1-1 1h-1a1 1 0 0 1-1-1v-1a1 1 0 0 1 1-1zm-4 0h1a1 1 0 0 1 1 1v1a1 1 0 0 1-1 1h-1a1 1 0 0 1-1-1v-1a1 1 0 0 1 1-1zM6 9h1a1 1 0 0 1 1 1v1a1 1 0 0 1-1 1H6a1 1 0 0 1-1-1v-1a1 1 0 0 1 1-1zm0-4h1a1 1 0 0 1 1 1v1a1 1 0 0 1-1 1H6a1 1 0 0 1-1-1V6a1 1 0 0 1 1-1zm0 8h1a1 1 0 0 1 1 1v1a1 1 0 0 1-1 1H6a1 1 0 0 1-1-1v-1a1 1 0 0 1 1-1z" fill="currentColor" fill-rule="evenodd"/></svg>